#!OML:ASF H:\BabyWalks\Project 1\Capture day 1\Session 1\baby.ASF
:FULLY-SPECIFIED
:DEGREES
637
root 29.2303 17.4801 -0.62539 -16.8662 68.7295 -19.3912
lowerback 20.6572 1.8871 4.04174
upperback 7.89053 3.61165 -0.641356
thorax -2.6777 2.03572 -3.78629
lowerneck 0.0299394 4.78206 9.65432
upperneck 0.701014 6.46618 -9.71357
head 0.838174 3.23098 -4.39597
rclavicle -4.33351e-014 -5.56597e-015
rhumerus -40.7756 2.06643 -81.2945
rradius 52.0557
rwrist -3.63326
rhand -14.6159 -15.9728
rfingers 7.12502
rthumb 11.5352 -45.6354
lclavicle -4.33351e-014 -5.56597e-015
lhumerus -42.4465 -3.80615 72.2408
lradius 56.438
lwrist 1.28592
lhand -1.45986 12.7475
lfingers 7.12502
lthumb 24.1914 41.2418
rfemur 7.70282 14.1099 23.1569
rtibia 10.315
rfoot -17.0817 7.39388
rtoes 2.97806
lfemur -23.7821 9.62701 -8.2357
ltibia 36.2814
lfoot -11.6301 4.97306
ltoes -6.90176
638
root 29.2834 17.4814 -0.653128 -16.3392 68.8875 -19.0474
lowerback 20.5719 1.88086 3.7803
upperback 7.82092 3.54166 -0.737861
thorax -2.72642 1.99355 -3.72434
lowerneck 0.00342612 4.79091 9.64652
upperneck 0.643539 6.47016 -9.60131
head 0.821957 3.23254 -4.36057
rclavicle -7.03698e-014 2.22639e-014
rhumerus -40.9559 2.27604 -81.5704
rradius 51.9853
rwrist -3.41987
rhand -14.0214 -15.6575
rfingers 7.12502
rthumb 12.1085 -45.2871
lclavicle -7.03698e-014 2.22639e-014
lhumerus -42.242 -3.97703 72.0194
lradius 57.3535
lwrist 1.85387
lhand -2.52786 12.5139
lfingers 7.12502
lthumb 23.167 41.1408
rfemur 7.71659 14.2985 22.8449
rtibia 10.1948
rfoot -17.0914 7.23952
rtoes 2.54175
lfemur -23.957 9.44583 -8.60946
ltibia 36.4294
lfoot -11.8823 5.10819
ltoes -6.60026
639
root 29.3352 17.4825 -0.680427 -15.8466 69.0828 -18.7344
lowerback 20.4916 1.86852 3.5395
upperback 7.75754 3.46885 -0.835209
thorax -2.76925 1.95116 -3.67433
lowerneck -0.0244895 4.78635 9.64177
upperneck 0.568852 6.45503 -9.47714
head 0.798739 3.22459 -4.32279
rclavicle -1.59028e-015 -2.3059e-014
rhumerus -41.1404 2.45348 -81.831
rradius 51.9129
rwrist -3.19025
rhand -13.3318 -15.3602
rfingers 7.12502
rthumb 12.7733 -44.9495
lclavicle -1.59028e-015 -2.3059e-014
lhumerus -42.0149 -4.17484 71.8064
lradius 58.2872
lwrist 2.45231
lhand -3.50721 12.2676
lfingers 7.12502
lthumb 22.2271 41.0095
rfemur 7.68742 14.4499 22.5338
rtibia 10.1767
rfoot -17.1261 7.09323
rtoes 2.04298
lfemur -24.1234 9.20729 -8.97945
ltibia 36.5493
lfoot -12.1303 5.25016
ltoes -6.2795
640
root 29.3862 17.4834 -0.707677 -15.4246 69.3124 -18.4872
lowerback 20.4143 1.84549 3.32965
upperback 7.7036 3.38957 -0.92548
thorax -2.80197 1.90693 -3.63267
lowerneck -0.0493943 4.77107 9.63283
upperneck 0.47263 6.42477 -9.34456
head 0.766832 3.20918 -4.2826
rclavicle -5.00937e-014 1.43125e-014
rhumerus -41.3264 2.61058 -82.0735
rradius 51.8409
rwrist -2.95085
rhand -12.5691 -15.1005
rfingers 7.12502
rthumb 13.5086 -44.6424
lclavicle -5.00937e-014 1.43125e-014
lhumerus -41.7676 -4.37885 71.6061
lradius 59.2373
lwrist 3.06626
lhand -4.36943 12.023
lfingers 7.12502
lthumb 21.3992 40.8613
rfemur 7.61118 14.5462 22.2354
rtibia 10.277
rfoot -17.1826 6.96304
rtoes 1.47658
lfemur -24.2787 8.91972 -9.33161
ltibia 36.6434
lfoot -12.3751 5.38748
ltoes -5.94404
641
root 29.4366 17.4846 -0.735017 -15.0797 69.5754 -18.306
lowerback 20.3406 1.81219 3.14752
upperback 7.66008 3.30389 -1.0056
thorax -2.82436 1.86075 -3.59427
lowerneck -0.0600359 4.7456 9.62371
upperneck 0.353143 6.38117 -9.21139
head 0.724492 3.18741 -4.24329
rclavicle -4.37326e-015 1.19271e-014
rhumerus -41.5156 2.75102 -82.2956
rradius 51.7738
rwrist -2.71731
rhand -11.7599 -14.904
rfingers 7.12502
rthumb 14.2884 -44.3924
lclavicle -4.37326e-015 1.19271e-014
lhumerus -41.5047 -4.58093 71.4227
lradius 60.2038
lwrist 3.67655
lhand -5.09847 11.8084
lfingers 7.12502
lthumb 20.6988 40.7246
rfemur 7.48307 14.5785 21.951
rtibia 10.5196
rfoot -17.2655 6.85212
rtoes 0.844986
lfemur -24.4141 8.59606 -9.6668
ltibia 36.7122
lfoot -12.6193 5.50983
ltoes -5.61525
642
root 29.4867 17.4862 -0.762798 -14.8085 69.8672 -18.1824
lowerback 20.2714 1.77044 2.98994
upperback 7.63116 3.21384 -1.07403
thorax -2.83259 1.81375 -3.55611
lowerneck -0.0517351 4.71074 9.66506
upperneck 0.191494 6.32421 -8.75774
head 0.729155 3.16516 -4.57527
rclavicle -3.69739e-014 6.36111e-015
rhumerus -41.698 2.88308 -82.4963
rradius 51.7033
rwrist -2.5041
rhand -10.9238 -14.7851
rfingers 7.12502
rthumb 15.0939 -44.2148
lclavicle -3.69739e-014 6.36111e-015
lhumerus -41.2227 -4.77885 71.2703
lradius 61.1823
lwrist 4.31678
lhand -5.7275 11.6484
lfingers 7.12502
lthumb 20.0943 40.6292
rfemur 7.29476 14.545 21.6794
rtibia 10.9332
rfoot -17.3802 6.75792
rtoes 0.134105
lfemur -24.5239 8.24653 -9.98641
ltibia 36.7544
lfoot -12.8588 5.60868
ltoes -5.28076
643
root 29.5364 17.4883 -0.791001 -14.6034 70.1834 -18.1014
lowerback 20.2119 1.72295 2.84433
upperback 7.61715 3.12078 -1.12851
thorax -2.82985 1.76627 -3.50921
lowerneck -0.0360823 4.66959 9.66368
upperneck 0.0391492 6.26203 -8.64963
head 0.665596 3.13371 -4.53977
rclavicle -4.13472e-014 7.95139e-015
rhumerus -41.8746 3.00232 -82.6733
rradius 51.6311
rwrist -2.30801
rhand -10.12 -14.7366
rfingers 7.12502
rthumb 15.8681 -44.1064
lclavicle -4.13472e-014 7.95139e-015
lhumerus -40.9285 -4.96307 71.1516
lradius 62.1682
lwrist 4.97374
lhand -6.25683 11.5282
lfingers 7.12502
lthumb 19.5854 40.5617
rfemur 7.03763 14.4407 21.4184
rtibia 11.5463
rfoot -17.526 6.68252
rtoes -0.65932
lfemur -24.598 7.8886 -10.2959
ltibia 36.766
lfoot -13.0902 5.67466
ltoes -4.97349
644
root 29.586 17.4913 -0.819712 -14.4399 70.5203 -18.035
lowerback 20.1612 1.67423 2.69959
upperback 7.61943 3.02852 -1.16904
thorax -2.81445 1.72005 -3.44802
lowerneck -0.0179586 4.62048 9.66287
upperneck -0.112624 6.19 -8.55225
head 0.601397 3.09731 -4.50866
rclavicle 4.77083e-015 1.11319e-014
rhumerus -42.0393 3.11429 -82.8249
rradius 51.5437
rwrist -2.13981
rhand -9.37535 -14.7474
rfingers 7.12502
rthumb 16.5851 -44.0587
lclavicle 4.77083e-015 1.11319e-014
lhumerus -40.622 -5.13125 71.0746
lradius 63.154
lwrist 5.63846
lhand -6.69448 11.447
lfingers 7.12502
lthumb 19.1646 40.5228
rfemur 6.70516 14.2621 21.1586
rtibia 12.3752
rfoot -17.6934 6.63137
rtoes -1.49906
lfemur -24.6301 7.53291 -10.6047
ltibia 36.7433
lfoot -13.311 5.70384
ltoes -4.68062
645
root 29.6352 17.4954 -0.848918 -14.2938 70.8694 -17.9573
lowerback 20.1234 1.62971 2.54303
upperback 7.63518 2.94162 -1.19623
thorax -2.79178 1.6769 -3.3673
lowerneck 0.00542151 4.56305 9.66373
upperneck -0.25565 6.10814 -8.46556
head 0.538755 3.05607 -4.48207
rclavicle 2.34566e-014 -7.95139e-015
rhumerus -42.192 3.2151 -82.9515
rradius 51.4367
rwrist -1.99688
rhand -8.70978 -14.8104
rfingers 7.12502
rthumb 17.2258 -44.0669
lclavicle 2.34566e-014 -7.95139e-015
lhumerus -40.3065 -5.27842 71.0429
lradius 64.131
lwrist 6.30224
lhand -7.06504 11.411
lfingers 7.12502
lthumb 18.8083 40.5217
rfemur 6.29115 14.0119 20.8937
rtibia 13.4266
rfoot -17.8673 6.60515
rtoes -2.36982
lfemur -24.6165 7.18826 -10.9182
ltibia 36.6834
lfoot -13.5169 5.69679
ltoes -4.39333
